# AST/ASF file generated using VICON BodyLanguage
# -----------------------------------------------
:version 1.10
:name VICON
:units
  mass 1.0
  length 0.45
  angle deg
:documentation
   .ast/.asf automatically generated from VICON data using
   VICON BodyBuilder and BodyLanguage model FoxedUp or BRILLIANT.MOD
:root
   order TX TY TZ RX RY RZ
   axis XYZ
   position 0 0 0  
   orientation 0 0 0 
:bonedata
  begin
     id 1 
     name lhipjoint
     direction 0.528046 -0.759594 0.379717 
     length 2.39752 
     axis 0 0 0  XYZ
  end
  begin
     id 2 
     name lfemur
     direction 0.34202 -0.939693 0  
     length 7.31175  
     axis 0 0 20  XYZ
    dof rx ry rz
    limits (-160.0 20.0)
           (-70.0 70.0)
           (-60.0 70.0)
  end
  begin
     id 3 
     name ltibia
     direction 0.34202 -0.939693 0   
     length 7.52482   
     axis 0 0 20   XYZ
    dof rx
    limits (-10.0 170.0)
  end
  begin
     id 4 
     name lfoot
     direction 0.0675379 -0.185559 0.980309   
     length 2.00961   
     axis -90 7.62852e-016 20   XYZ
    dof rx rz
    limits (-45.0 90.0)
           (-70.0 20.0)
  end
  begin
     id 5 
     name ltoes
     direction 1.5352e-011 -4.22286e-011 1   
     length 1.01383   
     axis -90 7.62852e-016 20   XYZ
    dof rx
    limits (-90.0 20.0)
  end
  begin
     id 6 
     name rhipjoint
     direction -0.510274 -0.769251 0.384544   
     length 2.36742  
     axis 0 0 0  XYZ 
  end
  begin
     id 7 
     name rfemur
     direction -0.34202 -0.939693 0   
     length 7.45325   
     axis 0 0 -20   XYZ
    dof rx ry rz
    limits (-160.0 20.0)
           (-70.0 70.0)
           (-70.0 60.0)
  end
  begin
     id 8 
     name rtibia
     direction -0.34202 -0.939693 0   
     length 7.49587   
     axis 0 0 -20   XYZ
    dof rx
    limits (-10.0 170.0)
 end
 begin
     id 9 
     name rfoot
     direction -0.106475 -0.292536 0.950308   
     length 2.20898  
     axis -90 -7.62852e-016 -20   XYZ
    dof rx rz
    limits (-45.0 90.0)
           (-20.0 70.0)
  end
  begin
     id 10 
     name rtoes
     direction -1.53597e-011 -4.22023e-011 1   
     length 1.10065   
     axis -90 -7.62852e-016 -20   XYZ
    dof rx
    limits (-90.0 20.0)
  end
  begin
     id 11 
     name lowerback
     direction 0.0260024 0.998026 -0.0571652   
     length 2.11214   
     axis 0 0 0   XYZ
    dof rx ry rz
    limits (-20.0 45.0)
           (-30.0 30.0)
           (-30.0 30.0)
  end
  begin
     id 12 
     name upperback
     direction 0.0216202 0.999542 -0.0211766   
     length 2.11689   
     axis 0 0 0   XYZ
    dof rx ry rz
    limits (-20.0 45.0)
           (-30.0 30.0)
           (-30.0 30.0)
  end
  begin
     id 13 
     name thorax
     direction 0.00883312 0.999944 0.00589057   
     length 2.11821   
     axis 0 0 0   XYZ
    dof rx ry rz
    limits (-20.0 45.0)
           (-30.0 30.0)
           (-30.0 30.0)
  end
  begin
     id 14 
     name lowerneck
     direction -0.059386 0.994433 0.0870401   
     length 1.81176   
     axis 0 0 0   XYZ
    dof rx ry rz
    limits (-20.0 45.0)
           (-30.0 30.0)
           (-30.0 30.0)
  end
  begin
     id 15 
     name upperneck
     direction 0.0506457 0.97328 -0.223967   
     length 1.82382   
     axis 0 0 0   XYZ
    dof rx ry rz
    limits (-20.0 45.0)
           (-30.0 30.0)
           (-30.0 30.0)
  end
  begin
     id 16
     name head
     direction 0.0205902 0.996147 -0.0852487  
     length 1.84805  
     axis 0 0 0   XYZ
    dof rx ry rz
    limits (-20.0 45.0)
           (-30.0 30.0)
           (-30.0 30.0)
  end
  begin
     id 17 
     name lclavicle
     direction 0.949493 0.303881 -0.0782325  
     length 3.60584  
     axis 0 0 0   XYZ
    dof ry rz
    limits (-20.0 10.0)
           (0.0 20.0)
  end
  begin
     id 18 
     name lhumerus
     direction 1 -4.48965e-011 1.48782e-027   
     length 4.95681   
     axis 180 -30 -90   XYZ
    dof rx ry rz
    limits (-60.0 90.0)
           (-90.0 90.0)
           (-90.0 90.0)
  end
  begin
     id 19
     name lradius
     direction 1 -4.48952e-011 2.06528e-027   
     length 3.40915   
     axis 180 -30 -90   XYZ
    dof rx
    limits (-10.0 170.0)
  end
  begin
     id 20
     name lwrist
     direction 1 -4.48964e-011 1.28021e-027   
     length 1.70457   
     axis -1.61767e-015 90 90   XYZ
    dof ry
    limits (-180.0 0.0)
 end
  begin
     id 21 
     name lhand
     direction 1 -4.49094e-011 2.54887e-027   
     length 0.616403   
     axis -1.63363e-015 90 90   XYZ
    dof rx rz
    limits (-90.0 90.0)
           (-45.0 45.0)
  end
  begin
     id 22 
     name lfingers
     direction 1 -4.49002e-011 5.11407e-027   
     length 0.49696   
     axis -3.26723e-015 90 90   XYZ
    dof rx
    limits (0.0 90.0)
  end
  begin
     id 23
     name lthumb
     direction 0.707107 -6.34998e-011 0.707107   
     length 0.713539   
     axis -90 45 -2.25915e-014   XYZ
    dof rx rz
    limits (-45.0 45.0)
           (-45.0 45.0)
  end
  begin
     id 24 
     name rclavicle
     direction -0.937751 0.334612 -0.0930482   
     length 3.46287  
     axis 0 0 0   XYZ 
    dof ry rz
    limits (-10.0 20.0)
           (-20.0 0.0)
  end
  begin
     id 25 
     name rhumerus
     direction -1 -4.48962e-011 3.59972e-027  
     length 5.352   
     axis 180 30 90   XYZ
    dof rx ry rz
    limits (-90.0 60.0)
           (-90.0 90.0)
           (-90.0 90.0)
  end
  begin
     id 26 
     name rradius
     direction -1 -4.48987e-011 -3.76925e-027   
     length 3.43721   
     axis 180 30 90   XYZ
    dof rx
    limits (-10.0 170.0)
  end
  begin
     id 27 
     name rwrist
     direction -1 -4.48943e-011 1.28112e-027   
     length 1.7186   
     axis -1.61767e-015 -90 -90   XYZ
    dof ry
    limits (-180.0 0.0)
  end
  begin
     id 28
     name rhand
     direction -1 -4.49027e-011 2.55483e-027   
     length 0.72009   
     axis -1.63363e-015 -90 -90   XYZ
    dof rx rz
    limits (-90.0 90.0)
           (-45.0 45.0)
  end
  begin
     id 29
     name rfingers
     direction -1 -4.48827e-011 5.14506e-027   
     length 0.580555   
     axis -3.26723e-015 -90 -90   XYZ
    dof rx
    limits (0.0 90.0)
  end
  begin
     id 30
     name rthumb
     direction -0.707107 -6.34936e-011 0.707107   
     length 0.833564   
     axis -90 -45 2.25915e-014   XYZ
    dof rx rz
    limits (-45.0 45.0)
           (-45.0 45.0)
  end
:hierarchy
  begin
    root lhipjoint rhipjoint lowerback
    lhipjoint lfemur
    lfemur ltibia
    ltibia lfoot
    lfoot ltoes
    rhipjoint rfemur
    rfemur rtibia
    rtibia rfoot
    rfoot rtoes
    lowerback upperback
    upperback thorax
    thorax lowerneck lclavicle rclavicle
    lowerneck upperneck
    upperneck head
    lclavicle lhumerus
    lhumerus lradius
    lradius lwrist
    lwrist lhand lthumb
    lhand lfingers
    rclavicle rhumerus
    rhumerus rradius
    rradius rwrist
    rwrist rhand rthumb
    rhand rfingers
  end

#!OML:ASF H:\Terrain\Patient Classification 1\Terrain2\Thursday\justin.ASF
:FULLY-SPECIFIED
:DEGREES
1
root -3.51765 17.287 -1.53553 -1.00036 4.88312 -6.26455
lowerback 4.7585 -0.125131 5.66746
upperback 3.23309 0.0456198 3.31182
thorax 0.670235 0.0804395 0.232216
lowerneck -11.3332 1.63551 -7.97856
upperneck 40.9864 5.21257 -0.21687
head 16.5303 0.952986 2.21318
rclavicle 1.2921e-015 2.22639e-014
rhumerus -34.3502 -8.17147 -80.1418
rradius 30.3069
rwrist -11.8776
rhand -20.5047 14.3874
rfingers 7.12502
rthumb 5.85253 -15.5118
lclavicle 1.2921e-015 2.22639e-014
lhumerus -35.2212 7.0038 85.1983
lradius 41.0209
lwrist 9.96797
lhand -18.1232 27.5325
lfingers 7.12502
lthumb 8.15138 57.3553
rfemur -4.22007 -4.85532 30.3502
rtibia 29.9826
rfoot -23.5463 -5.51837
rtoes 7.90651
lfemur -17.4678 -0.895902 -10.0059
ltibia 52.4311
lfoot -11.2136 -7.88898
ltoes -8.14357
2
root -3.5384 17.2982 -1.52431 -1.02433 5.10255 -6.42722
lowerback 4.8664 -0.034667 5.88386
upperback 3.26803 0.1817 3.36664
thorax 0.65301 0.151507 0.163006
lowerneck -11.0665 1.5292 -7.80826
upperneck 40.5681 5.05266 -0.486635
head 16.2647 0.903846 2.0244
rclavicle -9.0944e-015 -4.25399e-014
rhumerus -34.1769 -9.05481 -79.6311
rradius 29.5195
rwrist -11.7976
rhand -20.6661 14.6813
rfingers 7.12502
rthumb 5.69668 -15.2222
lclavicle -9.0944e-015 -4.25399e-014
lhumerus -35.2388 6.67617 85.2436
lradius 41.0363
lwrist 9.57252
lhand -18.0208 26.874
lfingers 7.12502
lthumb 8.25026 56.6929
rfemur -3.90007 -4.90057 30.6326
rtibia 29.3831
rfoot -23.2331 -5.57226
rtoes 8.56093
lfemur -18.7177 -0.878335 -9.61441
ltibia 54.0671
lfoot -9.29159 -8.60589
ltoes -9.52978
3
root -3.55612 17.3068 -1.5139 -1.14029 5.30402 -6.91486
lowerback 4.97067 -0.0989076 6.32987
upperback 3.3632 0.117427 3.56648
thorax 0.69418 0.126923 0.12479
lowerneck -11.0462 1.57044 -7.7692
upperneck 40.4283 5.14523 -0.61742
head 16.189 0.938754 1.97193
rclavicle -6.4605e-015 1.07344e-014
rhumerus -33.8429 -9.64916 -79.185
rradius 28.7641
rwrist -11.5169
rhand -20.6373 14.8219
rfingers 7.12502
rthumb 5.72451 -15.0808
lclavicle -6.4605e-015 1.07344e-014
lhumerus -35.4117 7.19705 85.1194
lradius 41.0456
lwrist 8.8626
lhand -18.0095 25.8541
lfingers 7.12502
lthumb 8.26114 55.6726
rfemur -3.53208 -4.96634 31.2567
rtibia 28.796
rfoot -22.9372 -5.80347
rtoes 8.55999
lfemur -19.9464 -0.761411 -8.85404
ltibia 55.7689
lfoot -7.50622 -9.29435
ltoes -11.8452
4
root -3.56991 17.3017 -1.50515 -1.29792 5.51775 -7.57002
lowerback 5.16242 -0.0781949 7.10447
upperback 3.44464 0.189929 3.77687
thorax 0.682107 0.174696 -0.0897406
lowerneck -11.186 1.44858 -7.89718
upperneck 40.4234 4.99854 -0.566969
head 16.2236 0.865485 1.99744
rclavicle 3.97569e-015 1.90833e-014
rhumerus -33.672 -10.6122 -78.5639
rradius 28.038
rwrist -11.018
rhand -20.6808 14.883
rfingers 7.12502
rthumb 5.68254 -15.0208
lclavicle 3.97569e-015 1.90833e-014
lhumerus -35.3005 7.27189 85.2306
lradius 40.9289
lwrist 8.51516
lhand -17.8489 25.9185
lfingers 7.12502
lthumb 8.41618 55.7309
rfemur -3.16522 -5.06344 32.0387
rtibia 28.2483
rfoot -22.6237 -6.09144
rtoes 8.41801
lfemur -21.1115 -0.691227 -7.89894
ltibia 57.3556
lfoot -5.47442 -9.95058
ltoes -8.50765
5
root -3.58641 17.2955 -1.49292 -1.4321 5.68171 -8.04204
lowerback 5.3912 0.0291021 7.64509
upperback 3.44351 0.380598 3.88815
thorax 0.570306 0.274418 -0.282801
lowerneck -11.1319 1.25489 -7.79721
upperneck 40.3459 4.68609 -0.607673
head 16.1877 0.752217 1.91118
rclavicle 1.98785e-016 -4.85035e-014
rhumerus -33.7543 -11.6338 -77.9901
rradius 27.332
rwrist -10.5666
rhand -20.7657 14.5153
rfingers 7.12502
rthumb 5.6006 -15.3907
lclavicle 1.98785e-016 -4.85035e-014
lhumerus -35.0279 6.92191 85.3768
lradius 40.6684
lwrist 8.54418
lhand -17.1721 26.4676
lfingers 7.12502
lthumb 9.06929 56.2526
rfemur -2.81777 -5.0858 32.6303
rtibia 27.7614
rfoot -22.4718 -6.14069
rtoes 8.29699
lfemur -22.2838 -0.598024 -7.16651
ltibia 58.8111
lfoot -3.71911 -10.519
ltoes -5.28791
6
root -3.60304 17.299 -1.47494 -1.58454 5.77334 -8.13596
lowerback 5.57873 0.0581541 7.68334
upperback 3.51403 0.436677 3.89694
thorax 0.543071 0.303612 -0.297928
lowerneck -10.9798 1.19634 -7.50654
upperneck 40.178 4.55262 -0.777756
head 16.0795 0.728067 1.7591
rclavicle -7.25564e-015 -7.55382e-015
rhumerus -33.7342 -12.2863 -77.6376
rradius 26.778
rwrist -10.2677
rhand -20.423 14.2643
rfingers 7.12502
rthumb 5.93141 -15.6327
lclavicle -7.25564e-015 -7.55382e-015
lhumerus -34.9235 6.99224 85.2528
lradius 40.5804
lwrist 8.17295
lhand -16.6493 26.7532
lfingers 7.12502
lthumb 9.57368 56.5156
rfemur -2.42279 -5.16553 32.7804
rtibia 27.3703
rfoot -22.5023 -5.92208
rtoes 8.7202
lfemur -23.2404 -0.459101 -6.89898
ltibia 60.0895
lfoot -2.67144 -11.1031
ltoes -6.04498
